<mxfile host="app.diagrams.net" modified="2022-02-18T13:34:09.757Z" agent="5.0 (Macintosh; Intel Mac OS X 10_15_7) AppleWebKit/537.36 (KHTML, like Gecko) Chrome/97.0.4692.71 Safari/537.36" etag="bPdrBryeGejPwVNARLUL" version="16.5.6" type="github">
  <diagram id="C5RBs43oDa-KdzZeNtuy" name="Page-1">
    <mxGraphModel dx="1351" dy="877" grid="1" gridSize="10" guides="1" tooltips="1" connect="1" arrows="1" fold="1" page="1" pageScale="1" pageWidth="827" pageHeight="1169" math="0" shadow="0">
      <root>
        <mxCell id="WIyWlLk6GJQsqaUBKTNV-0" />
        <mxCell id="WIyWlLk6GJQsqaUBKTNV-1" parent="WIyWlLk6GJQsqaUBKTNV-0" />
        <mxCell id="tjrS66PRlIzKb0lB5x5o-2" value="시작" style="ellipse;whiteSpace=wrap;html=1;" vertex="1" parent="WIyWlLk6GJQsqaUBKTNV-1">
          <mxGeometry x="160" y="130" width="160" height="40" as="geometry" />
        </mxCell>
        <mxCell id="tjrS66PRlIzKb0lB5x5o-4" value="makeLotto() 호출" style="rounded=0;whiteSpace=wrap;html=1;" vertex="1" parent="WIyWlLk6GJQsqaUBKTNV-1">
          <mxGeometry x="120" y="200" width="240" height="40" as="geometry" />
        </mxCell>
        <mxCell id="tjrS66PRlIzKb0lB5x5o-5" value="" style="endArrow=classic;html=1;rounded=0;exitX=0.5;exitY=1;exitDx=0;exitDy=0;entryX=0.5;entryY=0;entryDx=0;entryDy=0;" edge="1" parent="WIyWlLk6GJQsqaUBKTNV-1" source="tjrS66PRlIzKb0lB5x5o-2" target="tjrS66PRlIzKb0lB5x5o-4">
          <mxGeometry width="50" height="50" relative="1" as="geometry">
            <mxPoint x="240" y="330" as="sourcePoint" />
            <mxPoint x="290" y="280" as="targetPoint" />
          </mxGeometry>
        </mxCell>
        <mxCell id="tjrS66PRlIzKb0lB5x5o-6" value="static func random(in range: Range&amp;lt;Int&amp;gt;) -&amp;gt; Int&amp;nbsp;&lt;br&gt;함수의 범위를 1~45&lt;br&gt;로 설정하여 정수값 반환" style="rounded=0;whiteSpace=wrap;html=1;" vertex="1" parent="WIyWlLk6GJQsqaUBKTNV-1">
          <mxGeometry x="120" y="480" width="240" height="80" as="geometry" />
        </mxCell>
        <mxCell id="tjrS66PRlIzKb0lB5x5o-7" value="1~45 사이의 정수값을 6번 얻기 위해,&lt;br&gt;반복문 6번 실행" style="rounded=0;whiteSpace=wrap;html=1;labelBackgroundColor=#FFFFFF;" vertex="1" parent="WIyWlLk6GJQsqaUBKTNV-1">
          <mxGeometry x="120" y="300" width="240" height="60" as="geometry" />
        </mxCell>
        <mxCell id="tjrS66PRlIzKb0lB5x5o-10" value="" style="endArrow=classic;html=1;rounded=0;exitX=0.5;exitY=1;exitDx=0;exitDy=0;entryX=0.5;entryY=0;entryDx=0;entryDy=0;" edge="1" parent="WIyWlLk6GJQsqaUBKTNV-1" source="tjrS66PRlIzKb0lB5x5o-4" target="tjrS66PRlIzKb0lB5x5o-7">
          <mxGeometry width="50" height="50" relative="1" as="geometry">
            <mxPoint x="240" y="390" as="sourcePoint" />
            <mxPoint x="290" y="340" as="targetPoint" />
          </mxGeometry>
        </mxCell>
        <mxCell id="tjrS66PRlIzKb0lB5x5o-12" value="처음 반환 값은 그대로 Array[0]에 저장 후,&lt;br&gt;다음 랜덤한 값 부터는 배열 내에 저장된&lt;br&gt;멤버들과 비교" style="rounded=0;whiteSpace=wrap;html=1;labelBackgroundColor=#FFFFFF;" vertex="1" parent="WIyWlLk6GJQsqaUBKTNV-1">
          <mxGeometry x="120" y="584" width="240" height="90" as="geometry" />
        </mxCell>
        <mxCell id="tjrS66PRlIzKb0lB5x5o-13" value="" style="endArrow=classic;html=1;rounded=0;exitX=0.5;exitY=1;exitDx=0;exitDy=0;entryX=0.5;entryY=0;entryDx=0;entryDy=0;" edge="1" parent="WIyWlLk6GJQsqaUBKTNV-1" source="tjrS66PRlIzKb0lB5x5o-6" target="tjrS66PRlIzKb0lB5x5o-12">
          <mxGeometry width="50" height="50" relative="1" as="geometry">
            <mxPoint x="240" y="650" as="sourcePoint" />
            <mxPoint x="290" y="600" as="targetPoint" />
          </mxGeometry>
        </mxCell>
        <mxCell id="tjrS66PRlIzKb0lB5x5o-15" value="배열 내의 멤버의 갯수만큼 반복하여&lt;br&gt;랜덤한 값과 배열 멤버의 값을 비교" style="rounded=0;whiteSpace=wrap;html=1;labelBackgroundColor=#FFFFFF;" vertex="1" parent="WIyWlLk6GJQsqaUBKTNV-1">
          <mxGeometry x="120" y="710" width="240" height="90" as="geometry" />
        </mxCell>
        <mxCell id="tjrS66PRlIzKb0lB5x5o-17" value="반복문이 6번 반복 되었는가?" style="rhombus;whiteSpace=wrap;html=1;labelBackgroundColor=#FFFFFF;" vertex="1" parent="WIyWlLk6GJQsqaUBKTNV-1">
          <mxGeometry x="120" y="400" width="240" height="50" as="geometry" />
        </mxCell>
        <mxCell id="tjrS66PRlIzKb0lB5x5o-18" value="" style="endArrow=classic;html=1;rounded=0;exitX=0.5;exitY=1;exitDx=0;exitDy=0;entryX=0.5;entryY=0;entryDx=0;entryDy=0;" edge="1" parent="WIyWlLk6GJQsqaUBKTNV-1" source="tjrS66PRlIzKb0lB5x5o-17" target="tjrS66PRlIzKb0lB5x5o-6">
          <mxGeometry width="50" height="50" relative="1" as="geometry">
            <mxPoint x="240" y="620" as="sourcePoint" />
            <mxPoint x="290" y="570" as="targetPoint" />
          </mxGeometry>
        </mxCell>
        <mxCell id="tjrS66PRlIzKb0lB5x5o-19" value="No" style="text;html=1;strokeColor=none;fillColor=none;align=center;verticalAlign=middle;whiteSpace=wrap;rounded=0;labelBackgroundColor=#FFFFFF;" vertex="1" parent="WIyWlLk6GJQsqaUBKTNV-1">
          <mxGeometry x="190" y="450" width="60" height="30" as="geometry" />
        </mxCell>
        <mxCell id="tjrS66PRlIzKb0lB5x5o-20" value="끝" style="ellipse;whiteSpace=wrap;html=1;labelBackgroundColor=#FFFFFF;" vertex="1" parent="WIyWlLk6GJQsqaUBKTNV-1">
          <mxGeometry x="180" y="990" width="120" height="40" as="geometry" />
        </mxCell>
        <mxCell id="tjrS66PRlIzKb0lB5x5o-23" value="Yes" style="text;html=1;strokeColor=none;fillColor=none;align=center;verticalAlign=middle;whiteSpace=wrap;rounded=0;labelBackgroundColor=#FFFFFF;" vertex="1" parent="WIyWlLk6GJQsqaUBKTNV-1">
          <mxGeometry x="360" y="390" width="60" height="30" as="geometry" />
        </mxCell>
        <mxCell id="tjrS66PRlIzKb0lB5x5o-24" value="랜덤한 값과 배열 멤버의 값이 같은가?" style="rhombus;whiteSpace=wrap;html=1;labelBackgroundColor=#FFFFFF;" vertex="1" parent="WIyWlLk6GJQsqaUBKTNV-1">
          <mxGeometry x="120" y="830" width="240" height="80" as="geometry" />
        </mxCell>
        <mxCell id="tjrS66PRlIzKb0lB5x5o-25" value="배열의 다음 인덱스에 랜덤한 값 저장" style="rounded=0;whiteSpace=wrap;html=1;labelBackgroundColor=#FFFFFF;" vertex="1" parent="WIyWlLk6GJQsqaUBKTNV-1">
          <mxGeometry x="120" y="940" width="240" height="30" as="geometry" />
        </mxCell>
        <mxCell id="tjrS66PRlIzKb0lB5x5o-26" value="" style="endArrow=classic;html=1;rounded=0;exitX=0.5;exitY=1;exitDx=0;exitDy=0;entryX=0.5;entryY=0;entryDx=0;entryDy=0;" edge="1" parent="WIyWlLk6GJQsqaUBKTNV-1" source="tjrS66PRlIzKb0lB5x5o-24" target="tjrS66PRlIzKb0lB5x5o-25">
          <mxGeometry width="50" height="50" relative="1" as="geometry">
            <mxPoint x="240" y="900" as="sourcePoint" />
            <mxPoint x="290" y="850" as="targetPoint" />
          </mxGeometry>
        </mxCell>
        <mxCell id="tjrS66PRlIzKb0lB5x5o-27" value="No" style="text;html=1;strokeColor=none;fillColor=none;align=center;verticalAlign=middle;whiteSpace=wrap;rounded=0;labelBackgroundColor=#FFFFFF;" vertex="1" parent="WIyWlLk6GJQsqaUBKTNV-1">
          <mxGeometry x="180" y="910" width="60" height="30" as="geometry" />
        </mxCell>
        <mxCell id="tjrS66PRlIzKb0lB5x5o-28" value="" style="endArrow=classic;html=1;rounded=0;exitX=1;exitY=0.5;exitDx=0;exitDy=0;entryX=1;entryY=0.5;entryDx=0;entryDy=0;" edge="1" parent="WIyWlLk6GJQsqaUBKTNV-1" source="tjrS66PRlIzKb0lB5x5o-24" target="tjrS66PRlIzKb0lB5x5o-7">
          <mxGeometry width="50" height="50" relative="1" as="geometry">
            <mxPoint x="240" y="900" as="sourcePoint" />
            <mxPoint x="290" y="850" as="targetPoint" />
            <Array as="points">
              <mxPoint x="440" y="870" />
              <mxPoint x="440" y="330" />
            </Array>
          </mxGeometry>
        </mxCell>
        <mxCell id="tjrS66PRlIzKb0lB5x5o-29" value="Yes" style="text;html=1;strokeColor=none;fillColor=none;align=center;verticalAlign=middle;whiteSpace=wrap;rounded=0;labelBackgroundColor=#FFFFFF;" vertex="1" parent="WIyWlLk6GJQsqaUBKTNV-1">
          <mxGeometry x="370" y="830" width="60" height="30" as="geometry" />
        </mxCell>
        <mxCell id="tjrS66PRlIzKb0lB5x5o-30" value="" style="endArrow=classic;html=1;rounded=0;exitX=0.5;exitY=1;exitDx=0;exitDy=0;entryX=0.5;entryY=0;entryDx=0;entryDy=0;" edge="1" parent="WIyWlLk6GJQsqaUBKTNV-1" source="tjrS66PRlIzKb0lB5x5o-12" target="tjrS66PRlIzKb0lB5x5o-15">
          <mxGeometry width="50" height="50" relative="1" as="geometry">
            <mxPoint x="240" y="870" as="sourcePoint" />
            <mxPoint x="290" y="820" as="targetPoint" />
          </mxGeometry>
        </mxCell>
        <mxCell id="tjrS66PRlIzKb0lB5x5o-31" value="" style="endArrow=classic;html=1;rounded=0;exitX=0.5;exitY=1;exitDx=0;exitDy=0;entryX=0.5;entryY=0;entryDx=0;entryDy=0;" edge="1" parent="WIyWlLk6GJQsqaUBKTNV-1" source="tjrS66PRlIzKb0lB5x5o-15" target="tjrS66PRlIzKb0lB5x5o-24">
          <mxGeometry width="50" height="50" relative="1" as="geometry">
            <mxPoint x="250" y="770" as="sourcePoint" />
            <mxPoint x="250" y="800" as="targetPoint" />
          </mxGeometry>
        </mxCell>
        <mxCell id="tjrS66PRlIzKb0lB5x5o-32" value="" style="endArrow=classic;html=1;rounded=0;exitX=0;exitY=0.5;exitDx=0;exitDy=0;entryX=0;entryY=0.5;entryDx=0;entryDy=0;" edge="1" parent="WIyWlLk6GJQsqaUBKTNV-1" source="tjrS66PRlIzKb0lB5x5o-25" target="tjrS66PRlIzKb0lB5x5o-7">
          <mxGeometry width="50" height="50" relative="1" as="geometry">
            <mxPoint x="240" y="920" as="sourcePoint" />
            <mxPoint x="290" y="870" as="targetPoint" />
            <Array as="points">
              <mxPoint x="40" y="955" />
              <mxPoint x="40" y="330" />
            </Array>
          </mxGeometry>
        </mxCell>
        <mxCell id="tjrS66PRlIzKb0lB5x5o-33" value="" style="endArrow=classic;html=1;rounded=0;exitX=0.5;exitY=1;exitDx=0;exitDy=0;entryX=0.5;entryY=0;entryDx=0;entryDy=0;" edge="1" parent="WIyWlLk6GJQsqaUBKTNV-1" source="tjrS66PRlIzKb0lB5x5o-7" target="tjrS66PRlIzKb0lB5x5o-17">
          <mxGeometry width="50" height="50" relative="1" as="geometry">
            <mxPoint x="240" y="500" as="sourcePoint" />
            <mxPoint x="290" y="450" as="targetPoint" />
          </mxGeometry>
        </mxCell>
        <mxCell id="tjrS66PRlIzKb0lB5x5o-34" value="" style="endArrow=classic;html=1;rounded=0;exitX=1;exitY=0.5;exitDx=0;exitDy=0;entryX=0.5;entryY=0;entryDx=0;entryDy=0;" edge="1" parent="WIyWlLk6GJQsqaUBKTNV-1" source="tjrS66PRlIzKb0lB5x5o-17" target="tjrS66PRlIzKb0lB5x5o-20">
          <mxGeometry width="50" height="50" relative="1" as="geometry">
            <mxPoint x="240" y="560" as="sourcePoint" />
            <mxPoint x="480" y="930" as="targetPoint" />
            <Array as="points">
              <mxPoint x="480" y="425" />
              <mxPoint x="480" y="990" />
            </Array>
          </mxGeometry>
        </mxCell>
      </root>
    </mxGraphModel>
  </diagram>
</mxfile>
